<svg width="12" height="8" viewBox="0 0 12 8" fill="none" xmlns="http://www.w3.org/2000/svg">
<path d="M5.94216 7.27819C5.82643 7.27819 5.71871 7.25611 5.619 7.21195C5.51927 7.16778 5.42447 7.09197 5.33461 6.98453L1.01886 1.82449C0.885891 1.66553 0.817871 1.46571 0.814798 1.22504C0.811709 0.984372 0.879729 0.780871 1.01886 0.614543C1.15797 0.448214 1.32663 0.365051 1.52483 0.365051C1.72304 0.365051 1.8917 0.448214 2.03081 0.614543L5.94216 5.29107L9.8535 0.614543C9.98645 0.455581 10.1536 0.374254 10.3549 0.370561C10.5561 0.366887 10.7263 0.448214 10.8655 0.614543C11.0046 0.780871 11.0741 0.982534 11.0741 1.21953C11.0741 1.45651 11.0046 1.65816 10.8655 1.82449L6.54971 6.98453C6.45984 7.09197 6.36504 7.16778 6.26532 7.21195C6.16561 7.25611 6.05789 7.27819 5.94216 7.27819Z" fill="black"/>
</svg>
