<svg width="13" height="15" viewBox="0 0 13 15" fill="none" xmlns="http://www.w3.org/2000/svg">
<path d="M4.871 7.49997L0.724358 1.69867C0.541407 1.43827 0.519376 1.16819 0.658265 0.888413C0.797154 0.608639 1.02748 0.46875 1.34925 0.46875C1.47795 0.46875 1.60022 0.49809 1.71605 0.556771C1.8319 0.615452 1.922 0.696954 1.98634 0.801277L6.78201 7.49997L1.98634 14.1987C1.92181 14.303 1.83144 14.3845 1.71524 14.4432C1.59906 14.5019 1.47643 14.5312 1.34735 14.5312C1.03753 14.5312 0.810496 14.3913 0.66626 14.1115C0.522041 13.8318 0.541407 13.5617 0.724358 13.3013L4.871 7.49997ZM10.9888 7.49997L6.84214 1.69867C6.65919 1.43827 6.63716 1.16819 6.77605 0.888413C6.91492 0.608639 7.14524 0.46875 7.46701 0.46875C7.59573 0.46875 7.718 0.49809 7.83384 0.556771C7.94967 0.615452 8.03977 0.696954 8.10412 0.801277L12.8998 7.49997L8.10412 14.1987C8.03958 14.303 7.94921 14.3845 7.83303 14.4432C7.71685 14.5019 7.59421 14.5312 7.46511 14.5312C7.1553 14.5312 6.92828 14.3913 6.78405 14.1115C6.63983 13.8318 6.65919 13.5617 6.84214 13.3013L10.9888 7.49997Z" fill="black"/>
</svg>
