<svg width="17" height="18" viewBox="0 0 17 18" fill="none" xmlns="http://www.w3.org/2000/svg">
<path d="M2.24997 15.7917H5.73557V10.5433C5.73557 10.2765 5.8258 10.0529 6.00625 9.87246C6.1867 9.69201 6.41031 9.60178 6.67708 9.60178H10.3229C10.5896 9.60178 10.8132 9.69201 10.9937 9.87246C11.1741 10.0529 11.2644 10.2765 11.2644 10.5433V15.7917H14.75V6.57694C14.75 6.52352 14.7383 6.47511 14.7149 6.4317C14.6915 6.3883 14.6598 6.3499 14.6198 6.31652L8.69029 1.85938C8.63687 1.81265 8.57343 1.78928 8.49997 1.78928C8.42652 1.78928 8.36308 1.81265 8.30966 1.85938L2.38018 6.31652C2.34013 6.3499 2.30841 6.3883 2.28503 6.4317C2.26166 6.47511 2.24997 6.52352 2.24997 6.57694V15.7917ZM0.6875 15.7917V6.57694C0.6875 6.27879 0.754193 5.99635 0.887578 5.72959C1.02096 5.46284 1.20534 5.24316 1.4407 5.07056L7.37018 0.603421C7.69923 0.352344 8.07529 0.226807 8.49836 0.226807C8.92143 0.226807 9.29857 0.352344 9.62977 0.603421L15.5592 5.07056C15.7946 5.24316 15.979 5.46284 16.1124 5.72959C16.2458 5.99635 16.3124 6.27879 16.3124 6.57694V15.7917C16.3124 16.2177 16.1585 16.5846 15.8507 16.8924C15.5429 17.2002 15.176 17.3541 14.75 17.3541H10.6434C10.3767 17.3541 10.153 17.2639 9.97258 17.0834C9.79213 16.903 9.7019 16.6794 9.7019 16.4126V11.1642H7.29805V16.4126C7.29805 16.6794 7.20782 16.903 7.02737 17.0834C6.8469 17.2639 6.62329 17.3541 6.35654 17.3541H2.24997C1.82397 17.3541 1.45706 17.2002 1.14924 16.8924C0.841415 16.5846 0.6875 16.2177 0.6875 15.7917Z" fill="black"/>
</svg>
