<svg width="18" height="17" viewBox="0 0 18 17" fill="none" xmlns="http://www.w3.org/2000/svg">
<path d="M11.3279 13.9881L10.5234 16.2383C10.4781 16.3591 10.4028 16.4579 10.2976 16.5345C10.1924 16.6111 10.0745 16.6495 9.94394 16.6495C9.72813 16.6495 9.55547 16.5574 9.42597 16.3734C9.29647 16.1894 9.27435 15.9883 9.3596 15.7702L12.631 7.01739C12.6849 6.89658 12.7632 6.79925 12.8657 6.72542C12.9682 6.65158 13.082 6.61466 13.2072 6.61466H13.6766C13.8018 6.61466 13.9156 6.65158 14.0181 6.72542C14.1206 6.79925 14.1989 6.89658 14.2528 7.01739L17.5242 15.7836C17.6094 15.9928 17.5895 16.1894 17.4643 16.3734C17.3391 16.5574 17.1686 16.6495 16.9528 16.6495C16.8136 16.6495 16.6936 16.6111 16.5927 16.5345C16.4918 16.4579 16.4143 16.3547 16.3604 16.2249L15.5559 13.9881H11.3279ZM6.58033 9.74758L2.83795 13.6222C2.72141 13.7486 2.57709 13.8141 2.40497 13.8186C2.23285 13.823 2.08151 13.7576 1.95093 13.6222C1.82899 13.4958 1.76803 13.3426 1.76803 13.1625C1.76803 12.9824 1.82899 12.8291 1.95093 12.7027L5.69333 8.8146C5.20772 8.30559 4.74613 7.70149 4.30855 7.00229C3.87095 6.3031 3.5108 5.59216 3.22808 4.86948H4.5667C4.80949 5.3975 5.1049 5.92553 5.45292 6.45358C5.80094 6.98162 6.17674 7.4621 6.58033 7.89504C7.17818 7.26968 7.74365 6.51035 8.27674 5.61705C8.80982 4.72376 9.18643 3.89284 9.40657 3.12429H1.07525C0.89611 3.12429 0.74611 3.06165 0.625254 2.93636C0.504398 2.81107 0.44397 2.65557 0.44397 2.46987C0.44397 2.28417 0.504398 2.12867 0.625254 2.00338C0.746124 1.87808 0.896124 1.81543 1.07525 1.81543H5.96363V1.06031C5.96363 0.874618 6.02406 0.719123 6.14491 0.593818C6.26577 0.468528 6.41576 0.405884 6.59489 0.405884C6.77402 0.405884 6.92402 0.468528 7.04487 0.593818C7.16573 0.719123 7.22615 0.874618 7.22615 1.06031V1.81543H12.1145C12.2937 1.81543 12.4437 1.87808 12.5645 2.00338C12.6854 2.12867 12.7458 2.28417 12.7458 2.46987C12.7458 2.65557 12.6854 2.81107 12.5645 2.93636C12.4437 3.06165 12.2937 3.12429 12.1146 3.12429H10.6853C10.4123 4.10427 9.97713 5.12873 9.37985 6.19765C8.78255 7.26658 8.14505 8.14785 7.46735 8.84146L9.54413 11.0464L9.06662 12.3905L6.58033 9.74758ZM11.7326 12.8302H15.1512L13.4419 8.06952L11.7326 12.8302Z" fill="#358EFF"/>
</svg>
